<svg width="512" height="512" viewBox="0 0 512 512" fill="none" xmlns="http://www.w3.org/2000/svg">
<circle cx="256" cy="256" r="256" fill="#FF0037"/>
<mask id="mask0_1520_39" style="mask-type:alpha" maskUnits="userSpaceOnUse" x="0" y="0" width="512" height="512">
<circle cx="256" cy="256" r="256" fill="#FF0037"/>
</mask>
<g mask="url(#mask0_1520_39)">
<rect x="106.146" y="413.608" width="427.734" height="270.886" transform="rotate(-47.5691 106.146 413.608)" fill="#D30F0F"/>
</g>
<rect x="106" y="166" width="226" height="75" fill="#D30F0F"/>
<rect x="106.253" y="223.339" width="309.75" height="55.9548" fill="white"/>
<path d="M126.237 223.339H152.216L134.23 279.294H106.253L126.237 223.339Z" fill="#707789"/>
<path d="M188.186 223.339H214.165L196.18 279.294H168.202L188.186 223.339Z" fill="#707789"/>
<path d="M250.136 223.339H276.115L258.129 279.294H230.152L250.136 223.339Z" fill="#707789"/>
<path d="M312.085 223.339H338.064L320.079 279.294H292.102L312.085 223.339Z" fill="#707789"/>
<path d="M374.036 223.339H400.015L382.029 279.294H354.052L374.036 223.339Z" fill="#707789"/>
<rect x="94.0002" y="168.659" width="309.75" height="55.9548" transform="rotate(-13.3762 94.0002 168.659)" fill="white"/>
<path d="M113.442 164.036L138.716 158.026L134.163 216.624L106.945 223.096L113.442 164.036Z" fill="#707789"/>
<path d="M173.711 149.704L198.985 143.694L194.433 202.292L167.214 208.764L173.711 149.704Z" fill="#707789"/>
<path d="M233.98 135.372L259.254 129.362L254.701 187.96L227.483 194.432L233.98 135.372Z" fill="#707789"/>
<path d="M294.25 121.041L319.524 115.031L314.971 173.629L287.753 180.101L294.25 121.041Z" fill="#707789"/>
<path d="M354.519 106.708L379.793 100.698L375.241 159.296L348.022 165.768L354.519 106.708Z" fill="#707789"/>
<rect x="107" y="279" width="155.874" height="135.89" fill="#414952"/>
<rect x="262" y="279" width="154" height="136" fill="#23272B"/>
<rect x="262" y="223" width="154" height="56" fill="black" fill-opacity="0.15"/>
<path d="M262.314 128.633L395.359 97.0004L408.309 151.442L262.314 186.169L262.314 128.633Z" fill="black" fill-opacity="0.15"/>
</svg>
